<svg width="18" height="14" viewBox="0 0 18 14" fill="none" xmlns="http://www.w3.org/2000/svg">
<path d="M15.4231 3.6042C16.0559 3.12959 16.6254 2.56006 17.0684 1.89561C16.4989 2.14873 15.8344 2.33857 15.1699 2.40186C15.866 1.99053 16.3723 1.35771 16.6254 0.566699C15.9926 0.946387 15.2649 1.23115 14.5371 1.38936C13.9043 0.724902 13.05 0.345215 12.1008 0.345215C10.2656 0.345215 8.77854 1.83232 8.77854 3.66748C8.77854 3.92061 8.81018 4.17373 8.87346 4.42686C6.12073 4.26865 3.65276 2.93975 2.00745 0.946387C1.72268 1.421 1.56448 1.99053 1.56448 2.62334C1.56448 3.7624 2.13401 4.7749 3.05159 5.37607C2.5137 5.34443 1.97581 5.21787 1.53284 4.96475V4.99639C1.53284 6.61006 2.6719 7.93896 4.19065 8.25537C3.93752 8.31865 3.62112 8.38193 3.33635 8.38193C3.11487 8.38193 2.92502 8.35029 2.70354 8.31865C3.11487 9.64756 4.34885 10.5968 5.80432 10.6284C4.66526 11.5144 3.24143 12.0522 1.69104 12.0522C1.40627 12.0522 1.15315 12.0206 0.900024 11.989C2.35549 12.9382 4.09573 13.4761 5.99417 13.4761C12.1008 13.4761 15.4231 8.44521 15.4231 4.04717C15.4231 3.88896 15.4231 3.7624 15.4231 3.6042Z" fill="#111928"/>
</svg>
